<?xml version="1.0" encoding="UTF-8" standalone="no"?>
<!DOCTYPE svg PUBLIC "-//W3C//DTD SVG 1.1//EN" "http://www.w3.org/Graphics/SVG/1.1/DTD/svg11.dtd">
<!-- Generated by Microsoft Visio, SVG Export NFT-Intro.svg Page-1 -->
<svg xmlns="http://www.w3.org/2000/svg" xmlns:xlink="http://www.w3.org/1999/xlink"
	 xmlns:v="http://schemas.microsoft.com/visio/2003/SVGExtensions/" width="11in" height="8.5in" viewBox="0 0 792 612"
	 xml:space="preserve" color-interpolation-filters="sRGB" class="st15">
	<v:documentProperties v:langID="1033" v:viewMarkup="false">
		<v:userDefs>
			<v:ud v:nameU="msvSubprocessMaster" v:prompt="" v:val="VT4(Rectangle)"/>
			<v:ud v:nameU="msvNoAutoConnect" v:val="VT0(0):26"/>
		</v:userDefs>
	</v:documentProperties>

	<style type="text/css">
	<![CDATA[
		.st1 {fill:#bdd0e9;stroke:#c7c8c8;stroke-width:0.25}
		.st2 {fill:#4672c4;stroke:#c7c8c8;stroke-width:0.25}
		.st3 {fill:#feffff;font-family:Calibri;font-size:0.833336em}
		.st4 {fill:#ed7d31;stroke:#c7c8c8;stroke-width:0.25}
		.st5 {fill:#feffff;font-family:Calibri;font-size:1.16666em}
		.st6 {fill:#feffff;font-family:Calibri;font-size:1.00001em}
		.st7 {font-size:1em}
		.st8 {marker-end:url(#mrkr4-33);stroke:#ed7d31;stroke-dasharray:3,3;stroke-linecap:round;stroke-linejoin:round;stroke-width:1}
		.st9 {fill:#ed7d31;fill-opacity:1;stroke:#ed7d31;stroke-opacity:1;stroke-width:0.28409090909091}
		.st10 {stroke:#4672c4;stroke-linecap:round;stroke-linejoin:round;stroke-width:1}
		.st11 {baseline-shift:32.4947%;font-size:0.649894em}
		.st12 {stroke:#4672c4;stroke-linecap:round;stroke-linejoin:round;stroke-width:2.25}
		.st13 {fill:#ffffff;stroke:none;stroke-linecap:butt;stroke-width:7.2}
		.st14 {fill:#3c63ac;font-family:Calibri;font-size:1.00001em}
		.st15 {fill:none;fill-rule:evenodd;font-size:12px;overflow:visible;stroke-linecap:square;stroke-miterlimit:3}
	]]>
	</style>

	<defs id="Markers">
		<g id="lend4">
			<path d="M 2 1 L 0 0 L 2 -1 L 2 1 " style="stroke:none"/>
		</g>
		<marker id="mrkr4-33" class="st9" v:arrowType="4" v:arrowSize="2" v:setback="7.04" refX="-7.04" orient="auto"
				markerUnits="strokeWidth" overflow="visible">
			<use xlink:href="#lend4" transform="scale(-3.52,-3.52) "/>
		</marker>
	</defs>
	<g v:mID="0" v:index="1" v:groupContext="foregroundPage">
		<v:userDefs>
			<v:ud v:nameU="msvThemeOrder" v:val="VT0(0):26"/>
		</v:userDefs>
		<title>Page-1</title>
		<v:pageProperties v:drawingScale="1" v:pageScale="1" v:drawingUnits="0" v:shadowOffsetX="9" v:shadowOffsetY="-9"/>
		<v:layer v:name="Connector" v:index="0"/>
		<g id="shape7-1" v:mID="7" v:groupContext="shape" transform="translate(157.5,-162)">
			<title>Circle</title>
			<v:userDefs>
				<v:ud v:nameU="visVersion" v:val="VT0(15):26"/>
			</v:userDefs>
			<path d="M0 420.75 A191.25 191.25 0 0 1 382.5 420.75 A191.25 191.25 0 1 1 0 420.75 Z" class="st1"/>
		</g>
		<g id="shape1-3" v:mID="1" v:groupContext="shape" transform="translate(191.25,-329.25)">
			<title>Ellipse</title>
			<desc>ImmutableJS</desc>
			<v:userDefs>
				<v:ud v:nameU="visVersion" v:val="VT0(15):26"/>
			</v:userDefs>
			<v:textBlock v:margins="rect(4,4,4,4)"/>
			<v:textRect cx="48.375" cy="579.75" width="84.66" height="56.4375"/>
			<path d="M0 579.75 A48.375 32.25 0 1 1 96.75 579.75 A48.375 32.25 0 1 1 0 579.75 Z" class="st2"/>
			<text x="22.28" y="582.75" class="st3" v:langID="1033"><v:paragraph v:horizAlign="1"/><v:tabList/>ImmutableJS</text>		</g>
		<g id="shape2-6" v:mID="2" v:groupContext="shape" transform="translate(224.854,-255.75)">
			<title>Ellipse.2</title>
			<desc>Lodash</desc>
			<v:userDefs>
				<v:ud v:nameU="visVersion" v:val="VT0(15):26"/>
			</v:userDefs>
			<v:textBlock v:margins="rect(4,4,4,4)"/>
			<v:textRect cx="48.375" cy="579.75" width="84.66" height="56.4375"/>
			<path d="M0 579.75 A48.375 32.25 0 1 1 96.75 579.75 A48.375 32.25 0 1 1 0 579.75 Z" class="st2"/>
			<text x="34.03" y="582.75" class="st3" v:langID="1033"><v:paragraph v:horizAlign="1"/><v:tabList/>Lodash</text>		</g>
		<g id="shape3-9" v:mID="3" v:groupContext="shape" transform="translate(300.375,-305.25)">
			<title>Ellipse.3</title>
			<desc>momentjs</desc>
			<v:userDefs>
				<v:ud v:nameU="visVersion" v:val="VT0(15):26"/>
			</v:userDefs>
			<v:textBlock v:margins="rect(4,4,4,4)"/>
			<v:textRect cx="48.375" cy="579.75" width="84.66" height="56.4375"/>
			<path d="M0 579.75 A48.375 32.25 0 1 1 96.75 579.75 A48.375 32.25 0 1 1 0 579.75 Z" class="st2"/>
			<text x="27.81" y="582.75" class="st3" v:langID="1033"><v:paragraph v:horizAlign="1"/><v:tabList/>momentjs</text>		</g>
		<g id="shape4-12" v:mID="4" v:groupContext="shape" transform="translate(257.625,-429.75)">
			<title>Ellipse.4</title>
			<desc>NSDAL</desc>
			<v:userDefs>
				<v:ud v:nameU="visVersion" v:val="VT0(15):26"/>
			</v:userDefs>
			<v:textBlock v:margins="rect(4,4,4,4)"/>
			<v:textRect cx="63.5625" cy="569.625" width="111.24" height="74.1563"/>
			<path d="M0 569.62 A63.5625 42.375 0 1 1 127.13 569.62 A63.5625 42.375 0 1 1 0 569.62 Z" class="st4"/>
			<text x="44.53" y="573.83" class="st5" v:langID="1033"><v:paragraph v:horizAlign="1"/><v:tabList/>NSDAL</text>		</g>
		<a xlink:href="modules/_search_.html" xlink:title="Lazy Search Module">
			<g id="shape6-15" v:mID="6" v:groupContext="shape" transform="translate(384.75,-392.25)">
				<title>Ellipse.6</title>
				<desc>LazySearch</desc>
				<v:userDefs>
					<v:ud v:nameU="visVersion" v:val="VT0(15):26"/>
				</v:userDefs>
				<v:textBlock v:margins="rect(4,4,4,4)"/>
				<v:textRect cx="54" cy="576" width="94.51" height="63"/>
				<path d="M0 576 A54 36 0 0 1 108 576 A54 36 0 1 1 0 576 Z" class="st4"/>
				<text x="22.64" y="580.2" class="st5" v:langID="1033"><v:paragraph v:horizAlign="1"/><v:tabList/>LazySearch</text>			</g>
		</a>
		<g id="shape8-18" v:mID="8" v:groupContext="shape" transform="translate(419.625,-313.5)">
			<title>Ellipse.8</title>
			<desc>Geography</desc>
			<v:userDefs>
				<v:ud v:nameU="visVersion" v:val="VT0(15):26"/>
			</v:userDefs>
			<v:textBlock v:margins="rect(4,4,4,4)"/>
			<v:textRect cx="42.1875" cy="583.875" width="73.83" height="49.2188"/>
			<path d="M0 583.87 A42.1875 28.125 0 0 1 84.38 583.87 A42.1875 28.125 0 1 1 0 583.87 Z" class="st4"/>
			<text x="15.44" y="587.48" class="st6" v:langID="1033"><v:paragraph v:horizAlign="1"/><v:tabList/>Geography</text>		</g>
		<g id="shape1000-21" v:mID="1000" v:groupContext="shape" transform="translate(369,-234)">
			<title>Ellipse.1000</title>
			<desc>Logging</desc>
			<v:userDefs>
				<v:ud v:nameU="visVersion" v:val="VT0(15):26"/>
			</v:userDefs>
			<v:textBlock v:margins="rect(4,4,4,4)" v:verticalAlign="0"/>
			<v:textRect cx="54" cy="576" width="94.51" height="63"/>
			<path d="M0 576 A54 36 0 0 1 108 576 A54 36 0 1 1 0 576 Z" class="st4"/>
			<text x="32.2" y="561.1" class="st5" v:langID="1033"><v:paragraph v:horizAlign="1"/><v:tabList/>Logging</text>		</g>
		<g id="shape1001-24" v:mID="1001" v:groupContext="shape" transform="translate(396,-237.75)">
			<title>Ellipse.1001</title>
			<desc>Aurelia logging</desc>
			<v:userDefs>
				<v:ud v:nameU="visVersion" v:val="VT0(15):26"/>
			</v:userDefs>
			<v:textBlock v:margins="rect(4,4,4,4)"/>
			<v:textRect cx="23.6981" cy="596.201" width="41.48" height="27.6478"/>
			<path d="M0 596.2 A23.6981 15.7988 0 1 1 47.4 596.2 A23.6981 15.7988 0 0 1 0 596.2 Z" class="st2"/>
			<text x="9.26" y="593.2" class="st3" v:langID="1033"><v:paragraph v:horizAlign="1"/><v:tabList/>Aurelia<v:lf/><tspan
						x="9.08" dy="1.2em" class="st7">logging</tspan></text>		</g>
		<g id="shape1002-28" v:mID="1002" v:groupContext="shape" v:layerMember="0" transform="translate(390.506,-412.078)">
			<title>Dynamic connector.1002</title>
			<path d="M0 612 L-100.99 645.85" class="st8"/>
		</g>
		<g id="shape1003-34" v:mID="1003" v:groupContext="shape" transform="translate(-180.749,693.749) rotate(-135)">
			<title>Sheet.1003</title>
			<path d="M0 612 L13.44 612" class="st10"/>
		</g>
		<g id="shape1004-37" v:mID="1004" v:groupContext="shape" transform="translate(567,-428.34)">
			<title>Ellipse.1004</title>
			<desc>Custom Code</desc>
			<v:userDefs>
				<v:ud v:nameU="visVersion" v:val="VT0(15):26"/>
			</v:userDefs>
			<v:textBlock v:margins="rect(4,4,4,4)"/>
			<v:textRect cx="38.745" cy="601.17" width="67.81" height="18.9525"/>
			<path d="M0 601.17 A38.745 10.83 0 0 1 77.49 601.17 A38.745 10.83 0 0 1 0 601.17 Z" class="st4"/>
			<text x="11.64" y="604.17" class="st3" v:langID="1033"><v:paragraph v:horizAlign="1"/><v:tabList/>Custom Code</text>		</g>
		<g id="shape1005-40" v:mID="1005" v:groupContext="shape" transform="translate(576,-401.34)">
			<title>Ellipse.1005</title>
			<desc>3rd party code</desc>
			<v:userDefs>
				<v:ud v:nameU="visVersion" v:val="VT0(15):26"/>
			</v:userDefs>
			<v:textBlock v:margins="rect(4,4,4,4)"/>
			<v:textRect cx="38.745" cy="601.17" width="67.81" height="18.9525"/>
			<path d="M0 601.17 A38.745 10.83 0 1 1 77.49 601.17 A38.745 10.83 0 1 1 0 601.17 Z" class="st2"/>
			<text x="10.54" y="604.17" class="st3" v:langID="1033"><v:paragraph v:horizAlign="1"/><v:tabList/>3<tspan dy="-0.234em"
						class="st11" v:baseFontSize="10">rd</tspan><tspan dy="0.152em" class="st7"> </tspan>party code</text>		</g>
		<g id="shape1006-45" v:mID="1006" v:groupContext="shape" transform="translate(537.69,-473.88)">
			<title>Circle.1006</title>
			<desc>NFT Scope</desc>
			<v:userDefs>
				<v:ud v:nameU="visVersion" v:val="VT0(15):26"/>
			</v:userDefs>
			<v:textBlock v:margins="rect(4,4,4,4)"/>
			<v:textRect cx="20.31" cy="591.69" width="35.55" height="30.465"/>
			<path d="M0 591.69 A20.31 20.31 0 0 1 40.62 591.69 A20.31 20.31 0 1 1 0 591.69 Z" class="st1"/>
			<text x="12.35" y="588.69" class="st3" v:langID="1033"><v:paragraph v:horizAlign="1"/><v:tabList/>NFT<v:lf/><tspan
						x="8.15" dy="1.2em" class="st7">Scope</tspan></text>		</g>
		<g id="shape1008-49" v:mID="1008" v:groupContext="shape" transform="translate(121.494,490.506) rotate(45) scale(1,-1)">
			<title>Sheet.1008</title>
			<desc>Legend</desc>
			<v:textBlock v:margins="rect(4,4,4,4)"/>
			<v:textRect cx="92.9845" cy="595.564" width="185.97" height="32.8715"/>
			<path d="M0 579.13 A132.951 111.005 -166.94 0 0 185.97 579.13" class="st12"/>
			<rect v:rectContext="textBkgnd" x="75.3624" y="588.364" width="35.2444" height="14.4001" class="st13"/>
			<text x="75.36" y="-591.96" transform="scale(1,-1)" class="st14" v:langID="1033"><v:paragraph v:horizAlign="1"/><v:tabList/>Legend</text>		</g>
	</g>
</svg>
