<?xml version="1.0" encoding="UTF-8" standalone="no"?>
<!DOCTYPE svg PUBLIC "-//W3C//DTD SVG 1.1//EN" "http://www.w3.org/Graphics/SVG/1.1/DTD/svg11.dtd">
<!-- Generated by Microsoft Visio, SVG Export NFT-Doc-Diagrams.svg Page-1 -->
<svg xmlns="http://www.w3.org/2000/svg" xmlns:xlink="http://www.w3.org/1999/xlink"
	 xmlns:v="http://schemas.microsoft.com/visio/2003/SVGExtensions/" width="7.34019in" height="5.4513in"
	 viewBox="0 0 528.494 392.494" xml:space="preserve" color-interpolation-filters="sRGB" class="st15">
	<v:documentProperties v:langID="1033" v:viewMarkup="false"/>

	<style type="text/css">
	<![CDATA[
		.st1 {fill:#bdd0e9;stroke:#c7c8c8;stroke-width:0.25}
		.st2 {fill:#4672c4;stroke:#c7c8c8;stroke-width:0.25}
		.st3 {fill:#feffff;font-family:Calibri;font-size:0.833336em}
		.st4 {fill:#ed7d31;stroke:#c7c8c8;stroke-width:0.25}
		.st5 {fill:#feffff;font-family:Calibri;font-size:1.16666em}
		.st6 {fill:#feffff;font-family:Calibri;font-size:1.00001em}
		.st7 {font-size:1em}
		.st8 {marker-end:url(#mrkr4-33);stroke:#ed7d31;stroke-dasharray:3,3;stroke-linecap:round;stroke-linejoin:round;stroke-width:1}
		.st9 {fill:#ed7d31;fill-opacity:1;stroke:#ed7d31;stroke-opacity:1;stroke-width:0.28409090909091}
		.st10 {stroke:#4672c4;stroke-linecap:round;stroke-linejoin:round;stroke-width:1}
		.st11 {baseline-shift:32.4947%;font-size:0.649894em}
		.st12 {stroke:#4672c4;stroke-linecap:round;stroke-linejoin:round;stroke-width:2.25}
		.st13 {fill:#ffffff;stroke:none;stroke-linecap:butt;stroke-width:7.2}
		.st14 {fill:#3c63ac;font-family:Calibri;font-size:1.00001em}
		.st15 {fill:none;fill-rule:evenodd;font-size:12px;overflow:visible;stroke-linecap:square;stroke-miterlimit:3}
	]]>
	</style>

	<defs id="Markers">
		<g id="lend4">
			<path d="M 2 1 L 0 0 L 2 -1 L 2 1 " style="stroke:none"/>
		</g>
		<marker id="mrkr4-33" class="st9" v:arrowType="4" v:arrowSize="2" v:setback="7.04" refX="-7.04" orient="auto"
				markerUnits="strokeWidth" overflow="visible">
			<use xlink:href="#lend4" transform="scale(-3.52,-3.52) "/>
		</marker>
	</defs>
	<g v:mID="0" v:index="1" v:groupContext="foregroundPage">
		<title>Page-1</title>
		<v:pageProperties v:drawingScale="1" v:pageScale="1" v:drawingUnits="0" v:shadowOffsetX="9" v:shadowOffsetY="-9"/>
		<v:layer v:name="Connector" v:index="0"/>
		<g id="shape7-1" v:mID="7" v:groupContext="shape" transform="translate(0.25,-0.25)">
			<title>Circle</title>
			<v:userDefs>
				<v:ud v:nameU="visVersion" v:val="VT0(15):26"/>
			</v:userDefs>
			<path d="M0 201.24 A191.25 191.25 0 0 1 382.5 201.24 A191.25 191.25 0 1 1 0 201.24 Z" class="st1"/>
		</g>
		<g id="shape1-3" v:mID="1" v:groupContext="shape" transform="translate(34,-167.5)">
			<title>Ellipse</title>
			<desc>ImmutableJS</desc>
			<v:userDefs>
				<v:ud v:nameU="visVersion" v:val="VT0(15):26"/>
			</v:userDefs>
			<v:textBlock v:margins="rect(4,4,4,4)"/>
			<v:textRect cx="48.375" cy="360.244" width="84.66" height="56.4375"/>
			<path d="M0 360.24 A48.375 32.25 0 1 1 96.75 360.24 A48.375 32.25 0 1 1 0 360.24 Z" class="st2"/>
			<text x="22.28" y="363.24" class="st3" v:langID="1033"><v:paragraph v:horizAlign="1"/><v:tabList/>ImmutableJS</text>		</g>
		<g id="shape2-6" v:mID="2" v:groupContext="shape" transform="translate(67.6038,-94)">
			<title>Ellipse.2</title>
			<desc>Lodash</desc>
			<v:userDefs>
				<v:ud v:nameU="visVersion" v:val="VT0(15):26"/>
			</v:userDefs>
			<v:textBlock v:margins="rect(4,4,4,4)"/>
			<v:textRect cx="48.375" cy="360.244" width="84.66" height="56.4375"/>
			<path d="M0 360.24 A48.375 32.25 0 1 1 96.75 360.24 A48.375 32.25 0 1 1 0 360.24 Z" class="st2"/>
			<text x="34.03" y="363.24" class="st3" v:langID="1033"><v:paragraph v:horizAlign="1"/><v:tabList/>Lodash</text>		</g>
		<g id="shape3-9" v:mID="3" v:groupContext="shape" transform="translate(143.125,-143.5)">
			<title>Ellipse.3</title>
			<desc>momentjs</desc>
			<v:userDefs>
				<v:ud v:nameU="visVersion" v:val="VT0(15):26"/>
			</v:userDefs>
			<v:textBlock v:margins="rect(4,4,4,4)"/>
			<v:textRect cx="48.375" cy="360.244" width="84.66" height="56.4375"/>
			<path d="M0 360.24 A48.375 32.25 0 1 1 96.75 360.24 A48.375 32.25 0 1 1 0 360.24 Z" class="st2"/>
			<text x="27.81" y="363.24" class="st3" v:langID="1033"><v:paragraph v:horizAlign="1"/><v:tabList/>momentjs</text>		</g>
		<g id="shape4-12" v:mID="4" v:groupContext="shape" transform="translate(100.375,-268)">
			<title>Ellipse.4</title>
			<desc>NSDAL</desc>
			<v:userDefs>
				<v:ud v:nameU="visVersion" v:val="VT0(15):26"/>
			</v:userDefs>
			<v:textBlock v:margins="rect(4,4,4,4)"/>
			<v:textRect cx="63.5625" cy="350.119" width="111.24" height="74.1563"/>
			<path d="M0 350.12 A63.5625 42.375 0 1 1 127.13 350.12 A63.5625 42.375 0 1 1 0 350.12 Z" class="st4"/>
			<text x="44.53" y="354.32" class="st5" v:langID="1033"><v:paragraph v:horizAlign="1"/><v:tabList/>NSDAL</text>		</g>
		<g id="shape6-15" v:mID="6" v:groupContext="shape" transform="translate(227.5,-230.5)">
			<title>Ellipse.6</title>
			<desc>LazySearch</desc>
			<v:userDefs>
				<v:ud v:nameU="visVersion" v:val="VT0(15):26"/>
			</v:userDefs>
			<v:textBlock v:margins="rect(4,4,4,4)"/>
			<v:textRect cx="54" cy="356.494" width="94.51" height="63"/>
			<path d="M0 356.49 A54 36 0 0 1 108 356.49 A54 36 0 1 1 0 356.49 Z" class="st4"/>
			<text x="22.64" y="360.69" class="st5" v:langID="1033"><v:paragraph v:horizAlign="1"/><v:tabList/>LazySearch</text>		</g>
		<g id="shape8-18" v:mID="8" v:groupContext="shape" transform="translate(262.375,-151.75)">
			<title>Ellipse.8</title>
			<desc>Geography</desc>
			<v:userDefs>
				<v:ud v:nameU="visVersion" v:val="VT0(15):26"/>
			</v:userDefs>
			<v:textBlock v:margins="rect(4,4,4,4)"/>
			<v:textRect cx="42.1875" cy="364.369" width="73.83" height="49.2188"/>
			<path d="M0 364.37 A42.1875 28.125 0 0 1 84.38 364.37 A42.1875 28.125 0 1 1 0 364.37 Z" class="st4"/>
			<text x="15.44" y="367.97" class="st6" v:langID="1033"><v:paragraph v:horizAlign="1"/><v:tabList/>Geography</text>		</g>
		<g id="shape1000-21" v:mID="1000" v:groupContext="shape" transform="translate(211.75,-72.25)">
			<title>Ellipse.1000</title>
			<desc>Logging</desc>
			<v:userDefs>
				<v:ud v:nameU="visVersion" v:val="VT0(15):26"/>
			</v:userDefs>
			<v:textBlock v:margins="rect(4,4,4,4)" v:verticalAlign="0"/>
			<v:textRect cx="54" cy="356.494" width="94.51" height="63"/>
			<path d="M0 356.49 A54 36 0 0 1 108 356.49 A54 36 0 1 1 0 356.49 Z" class="st4"/>
			<text x="32.2" y="341.59" class="st5" v:langID="1033"><v:paragraph v:horizAlign="1"/><v:tabList/>Logging</text>		</g>
		<g id="shape1001-24" v:mID="1001" v:groupContext="shape" transform="translate(238.75,-76)">
			<title>Ellipse.1001</title>
			<desc>Aurelia logging</desc>
			<v:userDefs>
				<v:ud v:nameU="visVersion" v:val="VT0(15):26"/>
			</v:userDefs>
			<v:textBlock v:margins="rect(4,4,4,4)"/>
			<v:textRect cx="23.6981" cy="376.695" width="41.48" height="27.6478"/>
			<path d="M0 376.69 A23.6981 15.7988 0 1 1 47.4 376.69 A23.6981 15.7988 0 0 1 0 376.69 Z" class="st2"/>
			<text x="9.26" y="373.7" class="st3" v:langID="1033"><v:paragraph v:horizAlign="1"/><v:tabList/>Aurelia<v:lf/><tspan
						x="9.08" dy="1.2em" class="st7">logging</tspan></text>		</g>
		<g id="shape1002-28" v:mID="1002" v:groupContext="shape" v:layerMember="0" transform="translate(233.256,-250.328)">
			<title>Dynamic connector.1002</title>
			<path d="M0 392.49 L-100.99 426.35" class="st8"/>
		</g>
		<g id="shape1003-34" v:mID="1003" v:groupContext="shape" transform="translate(-182.785,480.779) rotate(-135)">
			<title>Sheet.1003</title>
			<path d="M0 392.49 L13.44 392.49" class="st10"/>
		</g>
		<g id="shape1004-37" v:mID="1004" v:groupContext="shape" transform="translate(409.75,-266.59)">
			<title>Ellipse.1004</title>
			<desc>Custom Code</desc>
			<v:userDefs>
				<v:ud v:nameU="visVersion" v:val="VT0(15):26"/>
			</v:userDefs>
			<v:textBlock v:margins="rect(4,4,4,4)"/>
			<v:textRect cx="38.745" cy="381.664" width="67.81" height="18.9525"/>
			<path d="M0 381.66 A38.745 10.83 0 0 1 77.49 381.66 A38.745 10.83 0 0 1 0 381.66 Z" class="st4"/>
			<text x="11.64" y="384.66" class="st3" v:langID="1033"><v:paragraph v:horizAlign="1"/><v:tabList/>Custom Code</text>		</g>
		<g id="shape1005-40" v:mID="1005" v:groupContext="shape" transform="translate(418.75,-239.59)">
			<title>Ellipse.1005</title>
			<desc>3rd party code</desc>
			<v:userDefs>
				<v:ud v:nameU="visVersion" v:val="VT0(15):26"/>
			</v:userDefs>
			<v:textBlock v:margins="rect(4,4,4,4)"/>
			<v:textRect cx="38.745" cy="381.664" width="67.81" height="18.9525"/>
			<path d="M0 381.66 A38.745 10.83 0 1 1 77.49 381.66 A38.745 10.83 0 1 1 0 381.66 Z" class="st2"/>
			<text x="10.54" y="384.66" class="st3" v:langID="1033"><v:paragraph v:horizAlign="1"/><v:tabList/>3<tspan dy="-0.234em"
						class="st11" v:baseFontSize="10">rd</tspan><tspan dy="0.152em" class="st7"> </tspan>party code</text>		</g>
		<g id="shape1006-45" v:mID="1006" v:groupContext="shape" transform="translate(380.44,-312.13)">
			<title>Circle.1006</title>
			<desc>NFT Scope</desc>
			<v:userDefs>
				<v:ud v:nameU="visVersion" v:val="VT0(15):26"/>
			</v:userDefs>
			<v:textBlock v:margins="rect(4,4,4,4)"/>
			<v:textRect cx="20.31" cy="372.184" width="35.55" height="30.465"/>
			<path d="M0 372.18 A20.31 20.31 0 0 1 40.62 372.18 A20.31 20.31 0 1 1 0 372.18 Z" class="st1"/>
			<text x="12.35" y="369.18" class="st3" v:langID="1033"><v:paragraph v:horizAlign="1"/><v:tabList/>NFT<v:lf/><tspan
						x="8.15" dy="1.2em" class="st7">Scope</tspan></text>		</g>
		<g id="shape1008-49" v:mID="1008" v:groupContext="shape" transform="translate(119.459,277.535) rotate(45) scale(1,-1)">
			<title>Sheet.1008</title>
			<desc>Legend</desc>
			<v:textBlock v:margins="rect(4,4,4,4)"/>
			<v:textRect cx="92.9845" cy="376.058" width="185.97" height="32.8715"/>
			<path d="M0 359.62 A132.951 111.005 -166.94 0 0 185.97 359.62" class="st12"/>
			<rect v:rectContext="textBkgnd" x="75.3624" y="368.858" width="35.2444" height="14.4001" class="st13"/>
			<text x="75.36" y="-372.46" transform="scale(1,-1)" class="st14" v:langID="1033"><v:paragraph v:horizAlign="1"/><v:tabList/>Legend</text>		</g>
	</g>
</svg>
