<?xml version="1.0" encoding="UTF-8" standalone="no"?>
<!DOCTYPE svg PUBLIC "-//W3C//DTD SVG 1.1//EN" "http://www.w3.org/Graphics/SVG/1.1/DTD/svg11.dtd">
<!-- Generated by Microsoft Visio, SVG Export NFT-Intro.svg Page-1 -->
<svg xmlns="http://www.w3.org/2000/svg" xmlns:xlink="http://www.w3.org/1999/xlink" xmlns:ev="http://www.w3.org/2001/xml-events"
		xmlns:v="http://schemas.microsoft.com/visio/2003/SVGExtensions/" width="7.34019in" height="5.4513in"
		viewBox="0 0 528.494 392.494" xml:space="preserve" color-interpolation-filters="sRGB" class="st16">
	<v:documentProperties v:langID="1033"/>

	<style type="text/css">
	<![CDATA[
		.st1 {fill:#bdd0e9;stroke:#c7c8c8;stroke-width:0.25}
		.st2 {fill:#4672c4;stroke:#c7c8c8;stroke-width:0.25}
		.st3 {fill:#feffff;font-family:Calibri;font-size:0.833336em}
		.st4 {fill:#ed7d31;stroke:#c7c8c8;stroke-width:0.25}
		.st5 {fill:#feffff;font-family:Calibri;font-size:1.16666em}
		.st6 {fill:#feffff;font-family:Calibri;font-size:1.00001em}
		.st7 {font-size:1em}
		.st8 {marker-end:url(#mrkr4-34);stroke:#ed7d31;stroke-dasharray:3,3;stroke-linecap:round;stroke-linejoin:round;stroke-width:0.999999}
		.st9 {fill:#ed7d31;fill-opacity:1;stroke:#ed7d31;stroke-opacity:1;stroke-width:0.28409070181811}
		.st10 {fill:none}
		.st11 {stroke:#4672c4;stroke-linecap:round;stroke-linejoin:round;stroke-width:0.999999}
		.st12 {baseline-shift:32.4947%;font-size:0.649894em}
		.st13 {stroke:#4672c4;stroke-linecap:round;stroke-linejoin:round;stroke-width:2.25}
		.st14 {fill:#ffffff;stroke:none;stroke-linecap:butt;stroke-width:7.2}
		.st15 {fill:#3c63ac;font-family:Calibri;font-size:1.00001em}
		.st16 {fill:none;fill-rule:evenodd;font-size:12px;overflow:visible;stroke-linecap:square;stroke-miterlimit:3}
	]]>
	</style>

	<defs id="Markers">
		<g id="lend4">
			<path d="M 2 1 L 0 0 L 2 -1 L 2 1 " style="stroke:none"/>
		</g>
		<marker id="mrkr4-34" class="st9" v:arrowType="4" v:arrowSize="2" v:setback="0" refX="-0" orient="auto"
				markerUnits="strokeWidth" overflow="visible">
			<use xlink:href="#lend4" transform="scale(-3.5200025681947,-3.5200025681947) "/>
		</marker>
	</defs>
	<g v:mID="0" v:index="1" v:groupContext="foregroundPage">
		<title>Page-1</title>
		<v:pageProperties v:drawingScale="1" v:pageScale="1" v:drawingUnits="0" v:shadowOffsetX="8.99999"
				v:shadowOffsetY="-8.99999"/>
		<v:layer v:name="Connector" v:index="0"/>
		<g id="shape1-1" v:mID="1" v:groupContext="shape" transform="translate(0.250109,-0.254)">
			<title>Circle</title>
			<v:userDefs>
				<v:ud v:nameU="visVersion" v:val="VT0(15):26"/>
			</v:userDefs>
			<path d="M0 201.24 A191.25 191.25 0 0 1 382.5 201.24 A191.25 191.25 0 1 1 0 201.24 Z" class="st1"/>
		</g>
		<g id="shape2-3" v:mID="2" v:groupContext="shape" transform="translate(54.575,-181.208)">
			<title>Ellipse</title>
			<desc>ImmutableJS</desc>
			<v:userDefs>
				<v:ud v:nameU="visVersion" v:val="VT0(15):26"/>
			</v:userDefs>
			<v:textBlock v:margins="rect(4,4,4,4)"/>
			<v:textRect cx="35.9999" cy="368.485" width="63.01" height="42.021"/>
			<path d="M0 368.48 A36 24.012 180 1 1 72 368.48 A36 24.012 180 1 1 -0 368.48 Z" class="st2"/>
			<text x="9.9" y="371.48" class="st3" v:langID="1033"><v:paragraph v:horizAlign="1"/><v:tabList/>ImmutableJS</text>		</g>
		<g id="shape3-6" v:mID="3" v:groupContext="shape" transform="translate(72,-105.588)">
			<title>Ellipse.2</title>
			<desc>Lodash</desc>
			<v:userDefs>
				<v:ud v:nameU="visVersion" v:val="VT0(15):26"/>
			</v:userDefs>
			<v:textBlock v:margins="rect(4,4,4,4)"/>
			<v:textRect cx="35.9999" cy="368.485" width="63.01" height="42.021"/>
			<path d="M0 368.48 A36 24.012 180 1 1 72 368.48 A36 24.012 180 1 1 -0 368.48 Z" class="st2"/>
			<text x="21.66" y="371.48" class="st3" v:langID="1033"><v:paragraph v:horizAlign="1"/><v:tabList/>Lodash</text>		</g>
		<g id="shape4-9" v:mID="4" v:groupContext="shape" transform="translate(151.2,-163.188)">
			<title>Ellipse.3</title>
			<desc>momentjs</desc>
			<v:userDefs>
				<v:ud v:nameU="visVersion" v:val="VT0(15):26"/>
			</v:userDefs>
			<v:textBlock v:margins="rect(4,4,4,4)"/>
			<v:textRect cx="35.9999" cy="368.485" width="63.01" height="42.021"/>
			<path d="M0 368.48 A36 24.012 180 1 1 72 368.48 A36 24.012 180 1 1 -0 368.48 Z" class="st2"/>
			<text x="15.43" y="371.48" class="st3" v:langID="1033"><v:paragraph v:horizAlign="1"/><v:tabList/>momentjs</text>		</g>
		<g id="shape5-12" v:mID="5" v:groupContext="shape" transform="translate(100.375,-267.997)">
			<title>Ellipse.4</title>
			<desc>NSDAL</desc>
			<v:userDefs>
				<v:ud v:nameU="visVersion" v:val="VT0(15):26"/>
			</v:userDefs>
			<v:textBlock v:margins="rect(4,4,4,4)"/>
			<v:textRect cx="63.5623" cy="350.116" width="111.24" height="74.1562"/>
			<path d="M-0 350.12 A63.5649 42.3766 180 0 1 127.13 350.12 A63.5649 42.3766 180 0 1 -0 350.12 Z" class="st4"/>
			<text x="44.53" y="354.32" class="st5" v:langID="1033"><v:paragraph v:horizAlign="1"/><v:tabList/>NSDAL</text>		</g>
		<a xlink:href="../../modules/_search_.html" xlink:title="Lazy Search Module">
			<g id="group6-15" transform="translate(227.5,-230.504)" v:mID="6" v:groupContext="group">
				<title>Sheet.6</title>
				<g id="shape7-16" v:mID="7" v:groupContext="shape">
					<title>Ellipse.6</title>
					<desc>LazySearch</desc>
					<v:userDefs>
						<v:ud v:nameU="visVersion" v:val="VT0(15):26"/>
					</v:userDefs>
					<v:textBlock v:margins="rect(4,4,4,4)"/>
					<v:textRect cx="53.9998" cy="356.498" width="94.51" height="62.9999"/>
					<path d="M0 356.49 A53.9999 36 180 1 1 108 356.49 A53.9999 36 180 1 1 -0 356.49 Z" class="st4"/>
					<text x="22.64" y="360.7" class="st5" v:langID="1033"><v:paragraph v:horizAlign="1"/><v:tabList/>LazySearch</text>				</g>
			</g>
		</a>
		<g id="shape8-19" v:mID="8" v:groupContext="shape" transform="translate(262.375,-151.747)">
			<title>Ellipse.8</title>
			<desc>Geography</desc>
			<v:userDefs>
				<v:ud v:nameU="visVersion" v:val="VT0(15):26"/>
			</v:userDefs>
			<v:textBlock v:margins="rect(4,4,4,4)"/>
			<v:textRect cx="42.1873" cy="364.366" width="73.83" height="49.2187"/>
			<path d="M-0 364.37 A42.19 28.1266 180 1 1 84.38 364.37 A42.19 28.1266 180 0 1 -0 364.37 Z" class="st4"/>
			<text x="15.44" y="367.97" class="st6" v:langID="1033"><v:paragraph v:horizAlign="1"/><v:tabList/>Geography</text>		</g>
		<g id="shape9-22" v:mID="9" v:groupContext="shape" transform="translate(211.75,-72.2539)">
			<title>Ellipse.1000</title>
			<desc>Logging</desc>
			<v:userDefs>
				<v:ud v:nameU="visVersion" v:val="VT0(15):26"/>
			</v:userDefs>
			<v:textBlock v:margins="rect(4,4,4,4)" v:verticalAlign="0"/>
			<v:textRect cx="53.9998" cy="356.498" width="94.51" height="62.9999"/>
			<path d="M0 356.49 A53.9999 36 180 1 1 108 356.49 A53.9999 36 180 1 1 0 356.49 Z" class="st4"/>
			<text x="32.2" y="341.6" class="st5" v:langID="1033"><v:paragraph v:horizAlign="1"/><v:tabList/>Logging</text>		</g>
		<g id="shape10-25" v:mID="10" v:groupContext="shape" transform="translate(238.75,-76.0039)">
			<title>Ellipse.1001</title>
			<desc>Aurelia logging</desc>
			<v:userDefs>
				<v:ud v:nameU="visVersion" v:val="VT0(15):26"/>
			</v:userDefs>
			<v:textBlock v:margins="rect(4,4,4,4)"/>
			<v:textRect cx="23.698" cy="376.699" width="41.48" height="27.6478"/>
			<path d="M-0 376.69 A23.7 15.8001 180 0 1 47.4 376.69 A23.7 15.8001 180 0 1 -0 376.69 Z" class="st2"/>
			<text x="9.26" y="373.7" class="st3" v:langID="1033"><v:paragraph v:horizAlign="1"/><v:tabList/>Aurelia<v:lf/><tspan
						x="9.08" dy="1.2em" class="st7">logging</tspan></text>		</g>
		<g id="shape11-29" v:mID="11" v:groupContext="shape" v:layerMember="0" transform="translate(125.591,-214.234)">
			<title>Dynamic connector.1002</title>
			<path d="M107.66 356.4 L6.67 390.26 L0 392.49" class="st8"/>
		</g>
		<g id="shape12-35" v:mID="12" v:groupContext="shape" transform="translate(-182.788,480.781) rotate(-135)">
			<title>Sheet.12</title>
			<path d="M0 392.49 L13.44 392.49 L0 392.49 Z" class="st10"/>
			<path d="M0 392.49 L13.44 392.49" class="st11"/>
		</g>
		<g id="shape13-38" v:mID="13" v:groupContext="shape" transform="translate(409.75,-266.594)">
			<title>Ellipse.1004</title>
			<desc>Custom Code</desc>
			<v:userDefs>
				<v:ud v:nameU="visVersion" v:val="VT0(15):26"/>
			</v:userDefs>
			<v:textBlock v:margins="rect(4,4,4,4)"/>
			<v:textRect cx="38.7449" cy="381.668" width="67.81" height="18.9525"/>
			<path d="M0 381.66 A38.745 10.83 180 1 1 77.49 381.66 A38.745 10.83 180 1 1 -0 381.66 Z" class="st4"/>
			<text x="11.64" y="384.67" class="st3" v:langID="1033"><v:paragraph v:horizAlign="1"/><v:tabList/>Custom Code</text>		</g>
		<g id="shape14-41" v:mID="14" v:groupContext="shape" transform="translate(418.75,-239.594)">
			<title>Ellipse.1005</title>
			<desc>3rd party code</desc>
			<v:userDefs>
				<v:ud v:nameU="visVersion" v:val="VT0(15):26"/>
			</v:userDefs>
			<v:textBlock v:margins="rect(4,4,4,4)"/>
			<v:textRect cx="38.7449" cy="381.668" width="67.81" height="18.9525"/>
			<path d="M0 381.66 A38.745 10.83 180 1 1 77.49 381.66 A38.745 10.83 180 1 1 -0 381.66 Z" class="st2"/>
			<text x="10.54" y="384.67" class="st3" v:langID="1033"><v:paragraph v:horizAlign="1"/><v:tabList/>3<tspan dy="-0.234em"
						class="st12" v:baseFontSize="9.99999">rd</tspan><tspan dy="0.152em" class="st7"> </tspan>party code</text>		</g>
		<g id="shape15-46" v:mID="15" v:groupContext="shape" transform="translate(380.44,-312.134)">
			<title>Circle.1006</title>
			<desc>NFT Scope</desc>
			<v:userDefs>
				<v:ud v:nameU="visVersion" v:val="VT0(15):26"/>
			</v:userDefs>
			<v:textBlock v:margins="rect(4,4,4,4)"/>
			<v:textRect cx="20.3099" cy="372.188" width="35.55" height="30.465"/>
			<path d="M0 372.18 A20.31 20.31 0 1 1 40.62 372.18 A20.31 20.31 0 0 1 0 372.18 Z" class="st1"/>
			<text x="12.35" y="369.19" class="st3" v:langID="1033"><v:paragraph v:horizAlign="1"/><v:tabList/>NFT<v:lf/><tspan
						x="8.15" dy="1.2em" class="st7">Scope</tspan></text>		</g>
		<g id="shape16-50" v:mID="16" v:groupContext="shape" transform="translate(119.457,277.536) rotate(45) scale(1,-1)">
			<title>Sheet.16</title>
			<desc>Legend</desc>
			<v:userDefs/>
			<v:textBlock v:margins="rect(4,4,4,4)"/>
			<v:textRect cx="92.9843" cy="376.06" width="185.97" height="32.8715"/>
			<path d="M0 359.62 A132.951 111.005 -166.94 0 0 185.97 359.62 L0 359.62 Z" class="st10"/>
			<path d="M0 359.62 A132.951 111.005 -166.94 0 0 185.97 359.62" class="st13"/>
			<rect v:rectContext="textBkgnd" x="75.362" y="368.86" width="35.2444" height="14.4001" class="st14"/>
			<text x="75.36" y="-372.46" transform="scale(1,-1)" class="st15" v:langID="1033"><v:paragraph v:horizAlign="1"/><v:tabList/>Legend</text>		</g>
		<g id="shape17-55" v:mID="17" v:groupContext="shape" transform="translate(115.2,-40.788)">
			<title>Ellipse.17</title>
			<desc>Lodash</desc>
			<v:userDefs>
				<v:ud v:nameU="visVersion" v:val="VT0(15):26"/>
			</v:userDefs>
			<v:textBlock v:margins="rect(4,4,4,4)"/>
			<v:textRect cx="35.9999" cy="368.485" width="63.01" height="42.021"/>
			<path d="M0 368.48 A36 24.012 180 1 1 72 368.48 A36 24.012 180 1 1 -0 368.48 Z" class="st2"/>
			<text x="9.35" y="371.48" class="st3" v:langID="1033"><v:paragraph v:horizAlign="1"/><v:tabList/>bignumber.js</text>		</g>
	</g>
</svg>
